<svg id="Layer_1" data-name="Layer 1" xmlns="http://www.w3.org/2000/svg" viewBox="0 0 85 85"><defs><style>.cls-1{fill:#e52e2e;stroke:#fff;stroke-miterlimit:10;}</style></defs><title>icon</title><path class="cls-1" d="M72.61,17.27a4.88,4.88,0,1,1-4.88-4.88A4.88,4.88,0,0,1,72.61,17.27ZM84,2.63A1.7,1.7,0,0,0,82.27,1C64.57,1,54.86,5.07,42.15,17.73c-2.9,2.95-5.9,6.31-8.95,9.92l-19.27,1a1.86,1.86,0,0,0-1.32.82L1.21,49a1.7,1.7,0,0,0,.25,2l3.25,3.26a1.71,1.71,0,0,0,1.17.46,1.32,1.32,0,0,0,.46-.05l14-4.32L34.67,64.62l-4.32,14a1.75,1.75,0,0,0,.41,1.62L34,83.54a1.79,1.79,0,0,0,1.17.46,1.57,1.57,0,0,0,.82-.2L55.53,72.4a1.88,1.88,0,0,0,.82-1.32l1-19.28c3.61-3.05,7-6.05,9.92-9C79.32,30.75,84,19.51,84,2.63Z"/></svg>